<svg xmlns="http://www.w3.org/2000/svg" id="Layer_1" version="1.1" viewBox="0 0 256 256"><defs><linearGradient id="linear-gradient" x1="221.467" x2="34.533" y1="279.579" y2="-19.579" gradientTransform="matrix(1 0 0 -1 0 258)" gradientUnits="userSpaceOnUse"><stop offset="0" stop-color="#1066b1"/><stop offset="1" stop-color="#7c3b97"/></linearGradient><style>.st1{fill:#fff}</style></defs><path d="M0 0h256v256H0z" style="fill:url(#linear-gradient)"/><g id="CTT"><path d="M30.8 73.7v107.8c0 1.5.9 2.8 2.2 3.4l93.5 42.7c.5.3 1 .3 1.5.3s1.1-.1 1.6-.3l93.5-42.7c1.3-.6 2.2-1.9 2.2-3.4V73.7c0-1.8-.7-3.3-2.3-4l-93.4-41.4c-1-.4-2.1-.4-3.1 0L33 69.7c-1.5.7-2.2 2.3-2.2 4M85 55.1l15.9-7L189 90.5v36.1l-18.3 8.6V98.7c0-1.4-.8-2.7-2.1-3.4zm127.1 18.3-21.3 9.7-81-39 18.1-8zm-80.4 44.9 31.5-14.4v37.2c0 1.3.7 2.5 1.7 3.2.6.4 1.3.6 2 .6.5 0 1.1-.1 1.6-.4l25.7-12.1c1.3-.6 2.1-1.9 2.1-3.4V88.8l21.3-9.7v100.1l-86 39.3V118.3zM43.9 73.4l32.2-14.3 81.4 39.2-29.5 13.5zM38.3 79l86 39.3v100.1l-86-39.3z" class="st1"/><path d="m79.7 159.1-2.3 4c-1.2-2.1-2.9-3.6-5-4.5-2-.9-3.6-.8-4.8.4s-1.8 3.2-1.8 6.2c0 6 2.3 10.1 6.8 12.2 2 .9 3.7.9 5.2-.1l2 6.2c-1.5.5-2.9.7-4 .5-1.2-.2-2.5-.7-4.1-1.4-3.5-1.6-6.3-4.2-8.3-7.7s-3-7.6-3-12.2c0-4.5 1.1-7.7 3.3-9.5s5.3-1.8 9.1 0c2.7 1.2 5 3.2 6.9 5.9m5.2 5.5-2.6-1.2V158l2.6 1.2v-5.9l5.3-.1v8.3l6.2 2.8v5.4l-6.2-2.8v12.6c0 2.1.3 3.6.8 4.7s1.4 1.9 2.7 2.5q1.95.9 3.6.3v6.2c-1.2 0-3-.6-5.3-1.6s-4-2.6-5.2-4.8S85 182 85 179v-14.4zm17.3 7.9-2.6-1.2v-5.4l2.6 1.2v-5.9l5.3-.1v8.3l6.2 2.8v5.4l-6.2-2.8v12.6c0 2.1.3 3.6.8 4.7s1.4 1.9 2.7 2.5q1.95.9 3.6.3v6.2c-1.2 0-3-.6-5.3-1.6s-4-2.6-5.2-4.8-1.8-4.8-1.8-7.8v-14.4z" class="st1"/></g></svg>